<?xml version="1.0" encoding="UTF-8"?>
<svg id="Livello_2" xmlns="http://www.w3.org/2000/svg" viewBox="0 0 57.69 57.69">
  <defs>
    <style>
      .cls-1 {
        fill: none;
        stroke: #191815;
        stroke-miterlimit: 10;
      }

      .cls-2 {
        fill: #191815;
      }
    </style>
  </defs>
  <g id="Livello_1-2" data-name="Livello_1">
    <g>
      <path class="cls-2" d="M24.86,43.13h-8.14l-1.29-6.43c-.63,4.8-2.51,7.06-6.39,7.06-4.84,0-6.72-4.05-6.72-9.94v-2.21c0-5.93,1.88-9.98,6.72-9.98,3.09,0,4.89,1.42,5.8,4.51v-12.19h10.02v29.18ZM13.71,37.78c.75,0,1.13-.63,1.13-3.55v-3.51c0-2.46-.25-3.59-1.13-3.59-.96,0-.96,1.38-.96,3.22v4.63c0,1.59.17,2.8.96,2.8Z"/>
      <path class="cls-2" d="M25.85,28.9v-.67c0-5.29,2.08-14.29,15.07-14.29,10.12,0,14.46,4.78,14.46,12.54v.56h-13.16v-2.31c0-1.69,0-3.37-1.29-3.37s-1.29,1.69-1.29,3.94v6.86c0,2.7,0,4.16,1.35,4.16,1.24,0,1.24-1.46,1.24-4.16v-1.86h13.16v.96c0,9.22-6.3,12.49-14.51,12.49-12.94,0-15.02-7.87-15.02-14.85Z"/>
    </g>
    <rect class="cls-1" x=".5" y=".5" width="56.69" height="56.69"/>
  </g>
</svg>